<svg width="14" height="14" viewBox="0 0 14 14" fill="none" xmlns="http://www.w3.org/2000/svg">
<path d="M6.38167 12.0849C6.54573 12.2488 6.76813 12.3408 7 12.3408C7.23188 12.3408 7.45427 12.2488 7.61833 12.0849L10.9194 8.78559C11.0836 8.62144 11.1758 8.39881 11.1758 8.16667C11.1758 7.93454 11.0836 7.7119 10.9194 7.54776C10.7553 7.38361 10.5326 7.29139 10.3005 7.29139C10.0684 7.29139 9.84573 7.38361 9.68158 7.54776L7.875 9.35376L7.875 2.62501C7.875 2.39294 7.78281 2.17038 7.61872 2.00629C7.45463 1.8422 7.23207 1.75001 7 1.75001C6.76794 1.75001 6.54538 1.8422 6.38128 2.00629C6.21719 2.17038 6.125 2.39294 6.125 2.62501L6.125 9.35376L4.319 7.54776C4.23772 7.46648 4.14123 7.40201 4.03504 7.35802C3.92885 7.31403 3.81503 7.29139 3.70008 7.29139C3.58514 7.29139 3.47132 7.31403 3.36513 7.35802C3.25894 7.40201 3.16245 7.46648 3.08117 7.54776C2.99989 7.62903 2.93542 7.72552 2.89143 7.83172C2.84744 7.93791 2.8248 8.05173 2.8248 8.16667C2.8248 8.28162 2.84744 8.39544 2.89143 8.50163C2.93542 8.60782 2.99989 8.70431 3.08117 8.78559L6.38167 12.0849Z" fill="white"/>
</svg>
